<?xml version="1.0" standalone="no"?><!DOCTYPE svg PUBLIC "-//W3C//DTD SVG 1.1//EN" "http://www.w3.org/Graphics/SVG/1.1/DTD/svg11.dtd"><svg t="1672751496682" class="icon" viewBox="0 0 1024 1024" version="1.1" xmlns="http://www.w3.org/2000/svg" p-id="6124" xmlns:xlink="http://www.w3.org/1999/xlink" width="128" height="128"><path d="M947.264 496.704c-17.023 16.511-44.544 16.511-61.567 0l-33.409-32.448v461.441c0 23.744-27.072 38.592-51.52 38.592h-169.024c-24.447 0-44.288-19.264-44.288-43.008v-117.824c0-16.384-13.697-29.696-30.593-29.696h-89.729c-16.896 0-30.591 13.312-30.591 29.696v117.824c0 23.744-19.841 43.008-44.288 43.008h-169.024c-24.449 0-51.52-14.848-51.52-38.592v-461.441l-33.409 32.448c-17.023 16.513-44.544 16.513-61.569 0s-17.023-43.264 0-59.775l354.24-344c22.401-21.824 51.648-32.768 81.023-33.151 29.376 0.385 58.624 11.328 81.023 33.088l107.456 104.321v-99.713c0-10.432 27.265-37.696 37.696-37.696h37.696c10.432 0 37.696 27.263 37.696 37.696v209.6l133.761 129.921c16.896 16.448 16.896 43.2-0.064 59.712z" p-id="6125" fill="#ffffff"></path></svg>